<?xml version="1.0" encoding="UTF-8"?>
<svg id="Layer_2" xmlns="http://www.w3.org/2000/svg" version="1.1" viewBox="0 0 138.2 66.8">
  <!-- Generator: Adobe Illustrator 29.8.1, SVG Export Plug-In . SVG Version: 2.1.1 Build 2)  -->
  <defs>
    <style>
      .st0 {
        fill: #0059ff;
      }
    </style>
  </defs>
  <g>
    <path class="st0" d="M29.6,56.3c0-4.5,3.1-6.8,6.7-6.8s5.8,1.9,6.2,4.8h-3c-.2-1.4-1.5-2.3-3.2-2.3s-3.8,1.5-3.8,4.3,1.7,4.3,3.8,4.3,3-.9,3.2-2.3h2.8c-.2,2.8-2.7,4.8-6.1,4.8s-6.7-2.3-6.7-6.8Z"/>
    <path class="st0" d="M44,49.2h2.6v5.5c.6-.9,1.6-1.5,2.9-1.5,2.1,0,3.6,1.6,3.6,3.8v6h-2.6v-5.4c0-1.2-.8-2-1.9-2s-2,.9-2,2.1v5.2h-2.6v-13.7Z"/>
    <path class="st0" d="M63.1,56.8v6.2h-2.6v-1.3c-.3.9-1.4,1.5-2.7,1.5-1.9,0-3.1-1.2-3.1-2.9s1.4-3,3.5-3h1.6c.5,0,.7-.3.7-.7,0-.8-.6-1.3-1.7-1.3s-1.7.7-1.8,1.5h-2.4c.1-1.9,1.7-3.5,4.3-3.5s4.2,1.4,4.2,3.6ZM60.5,59h0c0-.1-1.9-.1-1.9-.1-.8,0-1.4.5-1.4,1.2s.5,1.1,1.3,1.1c1.3,0,2-1,2-2.2Z"/>
    <path class="st0" d="M69.5,55.6c-1.3,0-1.9,1.1-1.9,2.7v4.7h-2.7v-9.6h2.7v1.6c.5-1.2,1.2-1.6,2.4-1.6h1.1v2.2h-1.6Z"/>
    <path class="st0" d="M81.4,53.4v10.1c0,2-1.4,3.3-3.6,3.3h-4.8v-2.1h4.4c.8,0,1.4-.6,1.4-1.5v-1.3c-.5.7-1.5,1.1-2.6,1.1-2.8,0-4.5-2-4.5-4.9s1.7-4.9,4.5-4.9,2.1.4,2.6,1.1v-.9h2.7ZM78.9,58.2c0-1.6-.9-2.7-2.4-2.7s-2.3,1.1-2.3,2.7.9,2.7,2.3,2.7,2.4-1,2.4-2.7Z"/>
    <path class="st0" d="M86.3,49.2v2.8h-2.8v-2.8h2.8ZM83.5,53.4h2.7v9.6h-2.7v-9.6Z"/>
    <path class="st0" d="M88.1,53.4h2.7v1.3c.5-.9,1.6-1.5,2.9-1.5,2.2,0,3.6,1.6,3.6,3.8v6h-2.7v-5.4c0-1.2-.7-2-1.8-2s-2,.9-2,2.1v5.2h-2.7v-9.6Z"/>
    <path class="st0" d="M108.6,53.4v10.1c0,2-1.4,3.3-3.6,3.3h-4.8v-2.1h4.4c.8,0,1.4-.6,1.4-1.5v-1.3c-.5.7-1.5,1.1-2.6,1.1-2.8,0-4.5-2-4.5-4.9s1.7-4.9,4.5-4.9,2.1.4,2.6,1.1v-.9h2.7ZM106.1,58.2c0-1.6-.9-2.7-2.4-2.7s-2.3,1.1-2.3,2.7.9,2.7,2.3,2.7,2.4-1,2.4-2.7Z"/>
  </g>
  <path class="st0" d="M127,1.1H11.2c-3.1,0-5.6,2.5-5.6,5.6v31.1c0,3.1,2.5,5.6,5.6,5.6h115.9c3.1,0,5.6-2.5,5.6-5.6V6.7c0-3.1-2.5-5.6-5.6-5.6ZM76.4,19.9c-.6,1.6-1.1,3.2-1.7,4.9-1.5,4.3-3.1,8.6-4.6,12.9,0,.1,0,.3-.1.3-.2.2-.4.3-.6.5,0-.2-.2-.4-.2-.6,0-4.1,0-8.3,0-12.4v-1h0c-2.2,0-4.2,0-6.3,0s-1.4-.5-1-1.5c.8-2.3,1.6-4.6,2.4-6.9,1.3-3.5,2.5-7.1,3.8-10.6,0,0,0-.2,0-.3.2-.2.4-.5.6-.7,0,.3.3.6.3.9,0,4.1,0,8.2,0,12.3,0,.6.2.8.8.8,1.8,0,3.7,0,5.5,0s1.3.5,1,1.5Z"/>
</svg>